<mxfile host="Electron" modified="2024-07-27T00:42:38.671Z" agent="Mozilla/5.0 (Windows NT 10.0; Win64; x64) AppleWebKit/537.36 (KHTML, like Gecko) draw.io/24.2.5 Chrome/120.0.6099.109 Electron/28.1.0 Safari/537.36" etag="yo1r55pWP4lRvrcxpPk_" version="24.2.5" type="device">
  <diagram name="Page-1" id="J8-owNbXNPejLSbsuaqo">
    <mxGraphModel dx="1232" dy="1205" grid="1" gridSize="10" guides="1" tooltips="1" connect="1" arrows="1" fold="1" page="1" pageScale="1" pageWidth="850" pageHeight="1100" math="0" shadow="0">
      <root>
        <mxCell id="0" />
        <mxCell id="1" parent="0" />
        <mxCell id="i2JR6kR3CyKO-apGiL5b-27" value="" style="shape=image;verticalLabelPosition=bottom;labelBackgroundColor=default;verticalAlign=top;aspect=fixed;imageAspect=0;image=data:image/png,iVBORw0KGgoAAAANSUhEUgAAAVwAAAFECAYAAABrk4baAAAgAElEQVR4Ae2d35Mc1ZXnJ4gJvxCBHxyuABYbjACDBOJHKwYsW6KF3cYBQkLGHqLR/HCLoB0x47HXwjPrQRLg6RLYZmeHEWNbnt21x5QjDDuEx+HQ7nMrgnle+XFfWv4bNvb9bpybdTJP3srMyuzOysofn4eOrLy/85zv/eSpm9V5/+Dmm292/GEDNIAG0MBiNPCZw591t99+u//7g3vvvdfxhw3QABpAA4vRQAq43NUWc1fDrtgVDaAB0QDAZRmFZSQ0gAYa0gDAbcjQRDhEOGgADQBcgEt0gwbQQEMaaBy4r791ydm/71zYcsfWvoTDG3I4URZRFhpYngaWDlyF71PPPgd0gS4aQAO91kBp4O4/cMDdfffdmcaQdMkvc+dUwFY9lmm7z2VGGxN3/frv3fZ4tZSdy9piUe2W7b+uck1dx2h03J1/7333/vv/I/67tHloxidRuQvu+Gg0m3f8Qlz3vfeyyxTZZXRo01167x23eWi27aJ6Nq/sddg6bf8cXVO+XUbG7uK/LL/VfY2hr0oDd+viG+5HP/npDHQFtpIu+WUGWxW0Wr5M21JGJ95kY3di3Gv9suOsWk7H1RXg6nh364dl2KfMmMNJreB67/zxGf0fP/++O388rcNoAiaQlfPNoEzVa99N+fA6dtNG2+oUXZPA9j1zkxqNDrnNS+83Al1rp9LAVbBa6Gal2cazPitAqx6z2spK25hc95Hgbif6XutnjanNaQqZukHeRTuWGXPWpA4hqv726QGI/cS/tOkOZUS+Wq+JY9Z1NNHvIvvIuyaF67yb3yLHpm2XBq5UsIB9ZGXFR7YWwNpo0bEqaLV82OZodMZNdiK4ylftnckZpxNGzjVttDp227bc9titjkZuJn1n4t56N2lP60u/M2UL2tjImEhZY41BN5nE49spaPdrG+/GSwpad2f76kxdGe/q+Kovq3aQY94NSNvazhiHv/bpUoa2ZcGsdcO8LD+E/rNtZ/U9Y/OdiRPb5vWp6Tq+mfpT2/p+A01IndJj9ksK6a+tdkJboEbpYdloSSL8OhvD4rgsF0RLFlpG886ff8fJEsTTH5c2onY1b3MzWabQev5a/fKDtrc5Wy9YltD2tC9ZEpFIXZdQNJLXcptmvAK0Q5vvxGXzxqHLKPYbQNzedDz2ZhXd0JIxKDi1jo511i7vOxlv7g3RR7nvuJdWVny0q+16u0lEPL0x2v517LbvX/1q7M5dSn+bUR2sGF9Ju5WAKxUUur/+zW8zlxikTNGfArTqMWxTJsjOzlU3Xk1/ZdOJkwUYOyl1QoZthPUVlgJ0GUNcb3Im+ZwxDjverLHqWBSyCkmZ/HEfpl0t7/OnEAzryjXbcjKG8HrsuPz15LSV6md67TpG24/axeaV6Xdu31MoWv/otWX1qXl+3NObsZaL7Wl9ZgCsNplnKz/mCsD15Y9fmPnaqoAWiOkkjybw+8Ekt1BNvv7qZJc13LjeNJKOvjpHSxaap30IDPVrteYpSHUsmm5hqfaJ8tJjiqE0XR/VerPjSG48kiflfBkz7kuX3oltJWP1ZaZr5noNEfzSY4j7jH0TLRek6mR8q1A/SDk7FrlevRnYa7b+DO1Upr7UqQxc6VSge+HV12bWc9UxRcd5oC2qa/N0gkt0JZNM87ImjU44G4lpmkIrr75OZK2rR5nMWW1ompRTWGSNVdvVsWu93HbNQzOtq0DR9qWt8Po1z0PSRHY6Nm0raxxhW3aMRXliy7x8a5eivuO+DBjz2vQ2y7CP+kqPUk7toderfs8as83Tz+EElPSsSDZVPmOy+3rT6NNP+BgWSQCRO+lN2XA89tzDyfSdyjNt6Fija0miZ00XmCiY08A2EA3aS/Vlouy4HY08p+M7fv4d56Nlfy7AnELV103WvGVM8+xyKVibnRfhJjcuc6OajstGt6mxZ15vRn1TTtraFXDVEbs5lgHu6v/6vcv6C/vTCesn8XRihpNSz2WCaXn/WSMoM6GlfS2vEXLRBM2CQjhGPde+dayPmyUCKRO3lQfyDKBUBa6OxR51XAogO47QFmXzpP2wru1TPxf1Hfdl/BO2GZcRmxn7FPlM89S/OpbSYzYTSOvmTWjNV0DouT36qFPgE7Sbir5m8hIoztYzeQKrPQLXXpu9sRT1K9dn820b9tqT9o678zFoL7jjZtxZddWeto+kz/edRMq69BGlpyNeHUPYtkbVevR1M4Cf9JXccCRN6+kxLCf9dRq40QVFa7kaqdoJNRqtuvF2svSgeUXA1TI6IeNJPV1D9H1ujP1SRpxnoCD5eX/x8sT22ClwM8edcTOwQNHPWcDV8ftrnF6/QF6vJxxb3Nb0GrS+lNc8hXHZPOnDlg371HNtfzc2CPvQtlK+reizUmPOhF+yfue/WhrIyTj9xI6/Om/GP+dSqNqvzvHXYzPRs8Fiv1YnE9+WjT4nYxMQ5EWosU/C65tZy5zfr79m046OQ69N+5Kjh1OwlHD+fLIMo3VTywPTn9LZaw37FCjb/rxfzE/wtN1UGQ/6C+78pSSizioX9qXX4/18Kat+YrPOAlejHR8x2rVO8zDNftWUctvb0cOk1KQMYKlQ9O0G67aSZvsrC9yssSogtM2s/hRE3sEmgtO6WcCVsrY/veZ5wM0ah+1X8xW+c/MCP0j58E+vQ9ueZ4OiPrUtHZ/6RtvWJRTfhllakfy4Tpkxe5AkD3AUYHptmcCdPpxJvrqa+griKaDkAZB+dY0hY+Dlx2/Oi6Djy5rlgEub5R+a6W989aYgY3rPwySBhz64C8eUee5vIBnX7dPNDSM4922ZutbeRdeu49Y15tAWcj1qX8mLxhxFwjY6Dvv3dsj4RpJXPxxj48DViys6Zi0nSFpRna7lhYBY1PjLRG2L6nteu3XaoM625o17N/kCYhtNhW2EEzPMr+M8/ApdR5u0MRtIFNkE4GZEXkUGqyuvCUBotG4j5brGX0c7ddpAbiw2iq1jfE220QRw5Wu2jfiavD76isAMcHsGXIVs/FU6WDJpk/DrAK69Xl0aaNM1lh3LIoCrX6t1iUJ/Q1p2TJSrFr2WsVcrgVtm4JSpXwzYFJuigcVqAOAuKcJF2IsVNvbFvm3UAMAFuL16GNnGScaYgL9qAOACXICLBtBAQxoAuA0ZWu9wHIl20MBwNQBwAS7RDRpAAw1poLPADd/JwN5ow40aiBjxfVc0sBTgHjhwwG2NL+7qbWNq2BC4es7eaEw+1QhHtNA2DSwFuPpO3aovL7fGU8BWPdo2ws+jB25yZ8cfcaceSF6Rp2VGo4+6F3PytAxHJjgaQANFGlgKcGVAe4VuVdBq+SJjFOUBXCZSkT7IQx9lNLA04Mrg9gJdBWjVYxmjZJUBuEyoLF2Qhi6qaGCpwJWByt5osl2P7CBRZeBVQavli/oIoRotMdzgxhf/0J09dVNqScHmbY1vdEene5kdfTEqL3W2XvxopWsqGht5TGw00H0NLBW4bYtwLXCjzze4F49G67n3n/qI25qu4dpyMglGR290Z099LAXXsAyTpfuTBR/iw71qYGnA3Qts5aI1Yq16LDKYhaSPYM/e5O6fRq4zeeMkkrXRrMBXzn0aD9lSN6Ei25MHzIaggaUAd6+wFcdUBa2WL3LqDFQLgZssI2ib0TJDlD4afcydOpv9iwctzxHIoIFhaWApwF3k73AVrHnHUOApyJqffkXpRUsKN8wuIxy90W1NIR3BF+CG9uZ8WIDB32l/LwW4dTghD6jz0sO+84Ar5ezyQNFDM11SiKLaaKlh6+yN7kUiXJYUGvqX0VDXnKdB1xZ7dBa4bTEg42insPELfmmjBgAuEQhRKBpAAw1pAOA2ZOg23m0ZE1EgGmhWAwAX4BLdoAE00JAGAG5DhiaSaDaSwN7Yu40aALgAl+gGDaCBhjQAcBsydBvvtoyJKBANNKsBgAtwiW7QABpoSAMAtyFDE0k0G0lgb+zdRg10Frjhf5SxpxkTrI0TjDGhS6uB3gBXAcyeZgjcCpzP6KFNGmgcuPsPHMjdPFLeIib5ZQykgK16LNM2ZZikaAANLEIDjQN36+IbLmvzSH1lo+SXudCqoNXyZdqmDJMNDaCBRWigceAqWC10s9LmXawCtOpxXrvkM9HQABpYlAYaB65ciAWs7Gkm8LUALnOxVUGr5YvaHo3OuMnOVTfeGLvtnevu+vXfu8nGyK2Or/rPcr49XnWj0aobb1/3edreaGPidrbH7vGPT9sYT1J1tBxHJjMaGK4GlgJcEZxCVzaQrApbqa8ArXosEnsE3OsenKujkROIKmSlnofqzsRtTPN2Jmfi5Y+NSQTguI1pnq1T1Dd5w52E+H44vl8acEVkAl3ZrVeOVUVXFbRavqifOMJdjTaOLDqP8qbwlch4e+w8pDVKzmmjqH/yhjPx8PUwfb1U4O5FdArQqseiPosAK/XCfFlqkCUGPWaVCesU9U/eMCchfh+O3wcPXAtE+7kMPEerY7e9PXGT7SjSLVOHyTWcyYWv8XWoAYBrlgAqA3f68Myu5c5rI3QA50xKNDAcDXQWuIh0OCLF1/i6LxoAuLy8pvIDy76In+sA5E1rAOACXICLBtBAQxoAuA0Zuuk7Kf0RvaGB9mkA4AJcohs0gAYa0gDAbcjQRBvtizbwCT5pWgMAF+AS3aABNNCQBgBuQ4Zu+k5Kf0RvaKB9GgC4AJfoBg2ggYY0MHjghu9iYG+09kUFRGr4pC8aALhvXcp81SN7ozHJ+zLJuY72aLmzwGVvtPaIiAmNL9BAOQ10FrjsjVbOwUwE7IQG2qOBzgJXd4ywu0Vkpc0TW7iGW/Z8Xrvkt0fk+AJftEUDnQWuGNACdtl7o+kWOzKumVc0yntzJ2fi9MnkqtuZbtUj9WQbH/nT1zzG9c3eavKi81TbGXk+X/qa7semfWh7tl8pyx82QAPNaqDTwBWxKHSXvTea37vM7GO2vR3tBiFj1B0hIvBd97tEhEJXKI5XR1Mwm73VPESvunJ5UTlpX8YUbXopG1tm9xuOg/NmJyD2Hpa9Ow9cEaxAd9l7o0W7P0T7mm1Mpjv/+n3OZIdfC8sEiDJ2gWIc4cqOwTFw0+U0grZg1ska55noNm7TRNbSttbhOKyJjr/b4e9eAHcvYiq7ZhuWC/uMtk4XSOqGkgLaidsQCOZtMOkBqRtR5oPZbsseAjeVZ9qz4wvr2Dw+t2Mi4odh+AHg5vwONwRseJ41QfzSQbCUMJlEX+ulfAg+vwyhMPawtBFusgTgo2fdnt1vCVQuT8cY9qvpHIcxyfFze/wMcGsEbgTGZClg5tzsnyaTQKNT/8DMb0ZpgXvVyUMuXRqYbKS3bs/K8216cKcfxAHc9kw44DdsXwweuG2cAEWALMpr47UwpmEDBv+n/Q9wW/jzqCKoFuUh7rS4sQf2aJsGAC7A5ZcLLdRA20DBeOq5eQFcJhvARQNooCENANyGDE2EUE+EgB2xY5c1AHABLtENGkADDWkA4DZk6C7flRk7USUaqEcDABfgEt2gATTQkAYA7gIN/fSpr3ghh/+lJudEDPVEDNgRO3ZJAwB3QcAV2CpYAS5Q6BIUGOvi9ApwFwBchS3AXZxwgQK27aIGAG7NwLWwBbhAoSwURvccdlc2T7pz9/AKzbI262I5gFszcLNEwJIC4A11MRoddJcB7OCeZQDcmoGbBdestHACcj4sKAPcYflb5zfAXSJwz/zPzzv5U2fIMZ6IK/IVc9397usvuMsrI3fk2En/Wc6vHNsX1zl9Iioj6ddOHHSj0T53bn3d19F2Rytr7tr6YXdkNHLRV9eozrXNNXda0jTaOraW2Ye2o0fpU8aUGu/0q7Bv348jiuAunzjptJ9wrKn65nr1+uJxZeT5uv5rePa12H513EXtaZ6tZ22lfpg35jLj+t8vHXf/OvVt4rd0xGv7Vvupb6WOHY9eH8f2QxzgNgjccELkA3c9AeRKBMEYQgLPKShtewoMWQP0gD1xMAVlAaQtI3WlnLQbpa97YGt6Vh/an23ft7F+Mr4JyI3Btqnj1rq+fQW8jNV/Ntdr1jLn5yVrnuG15Pdb3JfW077jG0vN44raN+OfsYnJUz+J741frU353H7Yio8AbsPA/X//dsTJnxg/H7hmspmJKHVmJuoUyD5Smq4JRmVM9JoR3WqUFEXFQXRl+syMtAQ+0zZPnzjpzkkE6s8luo7GHo7Tjz13rMn1SjmNoLPaiPNMdFt0LdKe/hW2Z67Zj9W3H9lQ68d9B2UlP84rOa5wLPbc2jx1bdO29aag4+KY+LjttgC4ZkLW4axwvTZss07gRhNTwZrATvrUSFOPkmbL23HZye7LZQAlXV77Ougux6Bdc6cFCAr3oA3bd/TVOBvM+rU5MyI3yyW2vfTY0jePorzCvioAN9VORr0smxbZPO/a9Fp0eUmjb03n2H7wAtwGgPt/X7rTyZ9MiFqBO7M2m0SKftKur7nL60mUFk3y9fjrv07QosmvZcKjB3mwlHD5RLREIWVn2swZazgmC5sqeTq+mX4N+Oe3Z+zn65m1agPS+e1Ut7Edd9i+Xps92hupTedzu6ELcLsM3GnE55cTPFwtMKKHZ+GaXwS08EFbOiq0kz9vAkftmP48kMy5AZ20oVFgOFbtSx5W6ddnjdyK8nybvs/y11LUnubZ38FaW10zP+HSslljLjsuKSfLEN4e5iGj9m/7jsuklmSSG6m0xV83bABwaxZr1pJClQh3aBNH4aWgsddflGfLlf1cV3t1tVN23JTrBkzL+AngAtylRkdF8CrKKyPusExd7dXVTjg+zvsD1jxfAtyagZtlaCLc/IlUBK+ivCw7z0urq7262pk3XvLzddNV2wDcBoDbVXEw7v5NeHy6XJ8CXIC71CUFALBcAGD/Zu0PcAEuwEUDaKAhDQDchgxNJNFsJIG9sXcbNQBwAS7RDRpAAw1pAOA2ZOg23m0ZE1EgGmhWA50FbvgPBt+5sOWOrX2JOzU3EDSABlqrgd4AVwH81LPPtdbYRBPNRhPYG3u3TQONA3f/gQPu7rvvzoSipEt+GSMpYKsey7RNGSYqGkADi9BA48DduviG+9FPfjoDXYGtpEt+mQutClotX6ZtyjDZ0AAaWIQGGgeugtVCNytt3sUqQKse57VLPhMNDaCBRWmgceDKhVjAPrKy4iNbC+AyF1sVtFo+bHs0WnXj7evu+vXf+7/Jhmz7csZNdq66yeSq29mZuA2/79dsubAtzpmoaAANFGlgKcCVASl0f/2b32YuMRQNWvIUoFWPYbujjYnbmZxJLWNEwL3utserPl2hrOdhG5wzydAAGiijgaUBVwYn0L3w6msz67llBl4VtFo+bHu0OnbbOwlcJV8j3PHqdGdaXyaKdMP6nDPR0AAaKKuBpQK37CCzyilAqx6z2pK01fHVmSUFgMtEytML6WhjNxoAuOZH4gJdWTaYiXCn67wsKTDJdjPJqINuVAODB66s4eoDs+QBWfTQTCNcMZau62pZebimRuTIhEIDaKCMBjoL3DIXRxkmARpAA23SAMA1SwptcgxjARRooH8aALgAl6URNIAGGtIAwG3I0EQr/YtW8Ck+raoBgAtwiW7QABpoSAMAtyFDV70TUp7oCQ30TwMAF+AS3aABNNCQBgBuQ4YmWulftIJP8WlVDQBcgEt0gwbQQEMaGDxww3cxsDcaUUvVqIXyaKasBgDuW5cyX/XI3mhMorKTiHJopawGOgvcPu6NFr0q8qqz73Ao60jKMenRQPs10Fngsjda+8UFAPARGkhroLPA1R0j7NY8WWnzHB6u4ZY9n9cu+WmhYQ/sgQZudp0FrjjPAnb5e6NNX+m4Ee0gIa9xlFc46ovN5dy+T3djkuyjplv82Pfwxp/HyesjbX3EC8DQQPc00GngWugufW80v/HkdbezPXarsunk9D27Ckm/d9p0Q0o7UWKwriabV8oarr5/N4ax7L2WUd+2xefuTUB8NiyfdR64IthW7I023elXH3hZkMoYZ85TLz6PHpTZMvZzVn0m6rAmKv7uh797Ady9iLHsmm1YLuxzHiBtfvRrBLv9OsAN7cl5PwCDH9N+BLg5v8MNARueh0KyQJW8onO/vKBLD35HYIAb2pPz9ETFHv2wB8BdBnCnm1LKg7Sd7YmbbANcgNIPoODHYj8OHrgIpFgg2Af7oIH6NABwG3ppBaKtT7TYElt2VQMAF+Dypig0gAYa0gDAbcjQXb0jM26iSTRQnwYALsAlukEDaKAhDQDchgxNlFBflIAtsWVXNQBwAS7RDRpAAw1pAOA2ZOiu3pEZN9EkGqhPAwAX4BLdoAE00JAGAG5Nhn7oP73t7N8D3/g796kjTyLkmuxLlFVflIUtl2dLgHvzze7AgQNua3zRv3Vst2K0sLWf933xy0AX6KIBNOA1AHCDF5nLqx53A10L2Sqfw77Y12x50UfoC87xRd0aALjTO6/dPWI30K0CWVu2bofSHpBAA+3VAMA1X3X2Al0L0SqfmRztnRz4Bt/UrQGAa4ArxpW90WS7nguvvlZpaaEKZG3Z0KHhe3TDvc9G01c7yn5pWte+Xzcsr2U4Ag80sHwNAFwD3DZEuCFwdZLYdA/YyZkYuAJZC2CpY8trGxyXP+HwwbB9AHBbtoYbglLgKi8q9y8r37EvKtctes64yXT3CA/ajPJM8mFPcvzfHv8D3Lb9SsFsRpm395lMINl+XXYE1qOHrd+uR0G86sbTnSSYcO2ZcPhi2L4AuAv+Ha5dr836HE5AG+Hatdnw52L+3G/PEwHWA1e2Us/YKy3sg/NhT3r8vzz/A1yzhrsXIWbBtExa2GcKuDl7n0kdfXi2Y9ZyNS3cKy3sg/PlTThsP2zbA9yagFvXRIqAm0StdbVLO8Oe6Pi/Hf4HuG0DrlkWYJK0Y5LgB/xQlwYAbkuAG63RXnc7018i1OVg2gEWaKA9GgC4LQEuk6I9kwJf4ItFaQDgAtz4HygWJTLaBWBoINIAwAW4ABcNoIGGNABwGzI0d3iiPDSABgAuwCW6QQNooCENANyGDE10Q3SDBtAAwK0JuK+/dcnZv+9c2HLH1r5E5FCTfYEVsOqDBgBuTe9SsLC1n5969jmgC3TRABrwGgC4Nb0tzEK2yuc+3LW5BqJPNFBOAwB3eufdy8vHRWxVIGvLItRyQsVO2KkPGgC45qvOXqBrIVrlcx9ExDUAQzRQTgMA1wBXRLPbPc2qQNaWDYWqr2ecTK66nZ3py8T9i8WvT3d9sC8Yj9LkdYy6xY6+k0F3iYjTzYvNpU/tZ7w6ij+n+jSvhsxrPx5fTtnw2jgvNymxU3/tBHANcBcZ4ZadRBEIr/vdHKSOBaM/35j4vHBfs6Rssr+ZfWn5TDsGwLN9ym4RyRh07DNtFIxF63DsLzzwbXXfAtyG1nBFnP9n8vnMPyvcGaiZ6FajVnnpuEayss2O1o/S0u/S1Q0mZ9qdAW60X5q0ldVOkp5E1TKevLHomDhWn5TYrL82A7gN/Uqh7CSaAaPZpyyrDdnTTL/yZ4GyfuCmgW7HZMdi0/ncX4Dg22q+BbgL/h2urteKMHcV4fpIdPbrvRW6biQZwTpcUkiv+cZruvKi89QuwCbCna7J2uhZ+tP2w/Sssdg0PleblNirv/YCuGYNdy9CV7DmHcu2HUa4Uk+XD1JLCqnt0JOo05ZVoGrfqS3XJxM3yQGu73MKeu0zBnWwxOGXFHLGov1y7C9A8G013wLcmoBbRnhlItwy7VCmmsixF/ZqiwYAboPAbYvTGQcAQgPL0QDAbRC4RLjLETlwwe5t0QDAbRC4bXE64wBAaGA5GgC4ADf+HS+TcDmTELsPx+4AF+ACXDSABhrSAMBtyNBEMcOJYvA1vs7TAMAFuEQ3aAANNKQBgNuQofPueKQTDaGB4Whg8MAN/zOMvciGI35Ah6+b1gDADTZ/VACzFxmTsenJSH/911xngbv/wAEn76/NEqmkS35WXpimgK16DNvhvP+TBR/j471qoLPA3br4hvvRT346A119ibjklzFOVdBq+bDtrJfOhGXyzvdSN69N0oEDGmifBjoLXAWrhW5W2jzRKUCrHsN29wLNvdQNx8F5+yYZPsEnqoHOAlcuwAJW9iIT+FoA60UWHauCVsvbNiNgJjshyCsLJT/9qsT0e2n1tYfvfu2Mm+zM1rXt85kJiwb6oYFOA1dEqND99W9+Wxm2Ul8BWvUYToAwSp05L9j/Kywbts15PyYbfsSPnQeuiFige+HV12bWc8sIvCpotXzYdghNG91qNJu3/1dYN2ybcyYqGuiHBnoB3L2IUQFa9Rj2GUIzAm6yE0NY3u7/FdYNy3Lej8mGH/EjwM35He48AIeTJ4RmdF5lL7JkT7Gwbc6ZqGigHxoAuDUBVyaE7JArywdZD800PbWv2E4SAYd1mWD9mGD4ET9aDQweuNYYfGZyoAE0sEgNAFxeXlPqH0QWKULaBnJD0QDABbgAFw2ggYY0AHAbMvRQ7uBcJ9EqGsjXAMAFuEQ3aAANNKSBFHAf+9xjjj9sgAbQABpYjAYALjcZbrJoAA00pAGA25ChiRgWEzFgV+zaJQ0AXIBLdIMG0EBDGgC4NRn61MWjzv6duHDEPbH+WYRck327FMUwVqLuPA0A3M895p586kn3n//hv7gnvvjErgFpYWs/f+FrQDdPfKQDpqFpAOB+7jEP2n/+7z9z8rdb6FrIVvkcCu7RF952H+78u3v7hUd3Df+wTc4BGxpohwYA7vQrr4B2L9CtAllblonQjomAH/BDExoAuGaNcS/QtRCt8rkJJ9MHMEED7dAAwDXAFVEeP/WMk+16vv/DH1b6Sl8FsrZsOBEePfyy+8AsKZz9wOx39sHL7tHDz7u3P7zuPvjrZMnh0b/+wO18+LZ7/vCjLiwfts95OyYefhimHwCuAW4bItwQuDoxbboH7AcvxzcEgcyab8wAAA8qSURBVKwFsNSx5bUNjsOc5Pi9PX4HuC1bww1BKXCN90SbRr5RmQ/c2cOPRmCdRrcetBnlmXDtmXD4Yti+ALht+5WCWVKIfrGgYJWlhOTXC89f+nf34aXnnR49bP0vHLLLM9GHPdHxfzv8D3AX/Dtcu16b9TmcCDbCtWuz4c/F/PmHH7gPPowA64Fr1nLD8mE/nLdjAuKHYfkB4Jo13L2IPwumZdLCPlPAnT4g8/uhebgmEa4+PNsxa7mallU+7IfzYU10/N0OfwPcmoBbl6Dt+mxdbdJOOyYbfsAPALdtwDXLAkxQJiga6JcGAG5LgButuV53O+Y3uEy2fk02/Ik/AW5LgMtkZDKigf5rAOAC3PgfKJjw/Z/w+Hi5Pk4Bl90283fbxDbYBg2ggb1qAOA2tFvnXh1FfSY7Gui+BgAuwGWLbDSABhrSQK+A+/Spr3jhvP7WJRf+ER10PzrAh/iw6xroDXAFtgJZcUgIW03vurMYP8BBA93WQC+Aq7BVsALcbosSqOC/vmqg88C1sF0kcEf3HHZXNk+6c/eMZta7ivL6KhyuCyiigeoa6Dxws5y+6Ah3NDroLufAN2s8pFUXJjbDZn3UQOeBmwXXrLQ6nQdwgUGdeqKt4egJ4AY/B4mWB9bd777+grty7HAcySpkX7lLotsoX8pcO3HQaZ4uN8xr49yxNd9+1Me+eInC1pO8yyvR8oW2f/nESXdtc82dHo2cLatpTNzhTFx83U1f9xK4r/7gbXfq+Rfc/Qcfcrfd9gm3//4HYqgVCTUC23oMuiPHBHDRuq1CT6BqP0t79nx+G+se0r7eyloCUL9MkfQdAdX2ve6uHIvgbPvTdjSv6PrI6+YkxW/98VvvgCuwffjQH7mjT6y5137wtvunf3nfH+V8nnA95NYPuyOjdGQZQnYGeGZNt2wbMhbbTgTYKHrVcZ4+EQHYlvP1/AO8JMrWSFvrcezPBMWX/fJl74D77FfXPWzf+vHP3OEjqz7CPX3m6+6ff/Ubn14k4LKwnAHgUoCbhnPRdZHXr0mLP7vrz94B94EHH/IR7WcfP+Yj2qPHvuAu/exX7vSZTZ8eitXCM/qcfK1fzJJC8tOyor5txGvLyfh1nCwjdHfihTrkfBi+7B1wb/vEJ9w7P3/PffKTtzuFrRzlXNJDYc/AbMU+0Jp9aKYPxuTrvn6V320bM/XMUoGuHSeATUDt00xZHUd4bZwPYxLj5+74uXfAvfe+Az6SlYhWIluBrQhSIl5Z060iThtlVqlny9bRhm2Pz92ZXPgKX4Ua6B1wTzz3vF+rlTVbWbuVXynIWq6s6ZZ5cGYNJFHsNfMQzeaV/VxHG2X7ohwTHA20WwOdB26ewHb1K4XRPnduPXn6v5vft45qaCPvmkhv92TCP/hnngZ6C9x5F04+kwMNoIGmNQBwg/80a9oB9MekRwPD0QDABbiVHiQCh+HAAV/X72uAC3ABLhpAAw1pAOA2ZGiihfqjBWyKTbumgV4Blz3NmIBdm4CMd1ia7Q1wdecHEfCi34fLJBnWJMHf+LsuDfQCuApbAS3AZXLUNTloBy3VrYHOA9fCdjfAHY0+6l4cf8SdeiC9V5lNjz7f4MYX/zD+e/GovBe3qG5Sfiuj/b06Mq/vvbZLfSCDBhangc4DN0scVZYU8sBl0+1n21/Z9PtPfcRtnb3J3T99z65tY7ef8/rebXvUW9wkw7bYVjXQeeBmwTUrTS84POaBy6bbz7Z+2fS8cratqp8X0WbVMVAekKCBahoAuIXLAtFSQx7cyqbPLXf0Jnd2HC1ByFKFRMS6fHH21Mfi30iOHkjKnT11U+ZSCBOg2gTAXtirSQ10Hrh7NVYEw2S9VUEnR117DctsjW90R2UjxxKwlvHlLSlou7rcMDp6owetQlbO033d4ATIcZsLWBveqz2pD8DQQL4GOgvcQ2/+0u32zwqiDDTLlJltM4G4QtOWkc9hu0XnPro168Bh2bBtzvNFj22wzbI00Gng3vf4k+7hb73hwfvQX37P3Xv0Sf9ZjpJ34MRp98i5H8+A2Ro7D1w23X6uWteWDz+H7RadA1wgEeqH8+5potPAFbDuX3vWQ3f/559JAVei34f+assdOPknrQKuhar9LJOn6DzKY0kByHQPMvgs8VnngfvgN8c+mpWjjXD9csPFd919x56uCbjJEoGs78o6q0LQrvsm6bO/7Q2hWgTYsKw/n67xRv3z0IyJnExkbNENW3QeuALWh7/7j/FSgpwreB/6q/HcCBehdkOo+Ak/9UEDvQCuj2YNaOM13GdemLuG2wcncg3ACA10QwOdBq6CtuoRcXZDnPgJP/VNA50Fbt8cwfUAFzTQfw0AXF5AHv8nGxO+/xMeHy/XxwAX4AJcNIAGGtIAwG3I0EQWy40ssD/2b4MGAC7AJbpBA2igIQ0A3IYM3Ya7K2MgykMDy9UAwAW4RDdoAA00pIFOAzfrReNFadzdl3t3x/7Yf+ga6A1w/3brh+5vXn8jc8dehfDQnc31Azw0sFwN9AK4r1x8yx144KD79L33uZfP/10udBHbcsWG/bH/0DXQC+BKBPvMc3/s16H23XW3+9Z3X82E7tCdzfUDPDSwXA30BrgC3a/+ydfcLbfc4u741J3uL17+7gx0s8Q2Gh10lzdPunMrh92VzXX3u6+/4C6vjNyRYyf9Zzm/cmyfG432uXPr6z5P2xmtrLlr64fd5z4+bePYWqqOlDt9IqkT93VPtE3O6J7D7sqJgzywaOiBhfqN43KhM2T79we4P/xH9+Txkx5e93z6Xnf23PcqAHfdg/OI7FO2EkFTICvC8FDdXHOnp3nXDCAVphFI153m5dWR9CvrJz3ApW2BuvYzZBFy7QBwKBroBXBf+8HbbvULT3pAylru37z+5gxsJQLOcupM1KkRr0ah5jwqO4WvpK8fdh7Spoz0Ydv0Uey03OkT00jan0vEfNKdm/aTNTbSABEa6JcGegHc82/8vTv06GfcQ48ccvJrBf1VQnjMEq+Fo+TPO9eoVI/z6kRLEQJWBbSAds2dluWEKYizxkVavyYa/sSfooFeAFfAeuH7/+DOv/n3ubCtI8IVg0UR65q7LNAcTddiCyJcqePhHCwlXD6xxnICa7eZ37qAc3/h3BvghtFs1nmWkOdFtLP50cMzXa/1EJ4DXA9peTCnyxQS3ZrzrHGR1t9Jh2+H69tOAxfhDle4+B7fd1EDAJevtXytRQNooCENANyGDN3FuzFjJopEA/VqAOACXKIbNIAGGtIAwG3I0EQK9UYK2BN7dlEDABfgEt2gATTQkAYAbkOG7uLdmDETRaKBejUAcAEu0Q0aQAMNaaBXwH361Fe8cMr+0wN373rv3tgTe6KBYg30BrgCW/33XYBb7HQmBfZBA8vRQC+Aq7AFuMsREZMXu6OBchroPHAtbAFuttPD90EwObLthF2wy6I10HngZhmIJYX0xAG4aXtkaYY0bNSEBjoP3Cy4ZqU1Ycy29gFwgUlbtTm0cfUGuI8/fsxl/Sl88xwbw6hFe5rp/mmyn5rusVZ2nHqd0Sshoz3arhw7HO3bxu4S/PypoZ8/qQ45pm/2vQGugjXvmOf4CGTt2dNMYRvudVZpnP79vMnmlfIC9Gu8fxfYAtula6A3wM2KbiVNAVwMXPNy8IKXiUfQW+yeZlFkmuwmoeOOI1x9iXnROIPte8K62ibHdPSBPbDHojXQG+AqWPOOeYYMYTTvXPcy06O0W1Sn6p5mAJdJn6dV0ruvjd4AN4xwQ/DmibUIlpkw9dFjvXua2TEULylUicRZUsjzOendB1dXfdgb4IaADc/zHGRhJ2Xmn9e/p1l2n9EDr5mHZiWWFPx1rKz5B25Sn4dmACZP/6Q3q43BAxfBNSs47I29h6wBgMuT26U/uR3yBOTah3UD6jxwEeywBIu/8XeXNQBwiXCJcNEAGmhIAwC3IUN3+a7M2Ikq0UA9GgC4AJfoBg2ggYY0AHAbMjQRQj0RAnbEjl3WAMAFuEQ3aAANNKQBgNuQobt8V2bsRJVooB4NAFyAS3SDBtBAQxroNHAPvPSKO/TmL93KxXfd7Yc+6x74i9fcoYu/cA//7Tvu9pXDXkT7jh13B7/1hnvktf/qHvz2D9ytd96NuBoSF1FRPVERduyPHTsN3IfP/9gDVyB7aPyL6PObv/THh757yd33p99KpQmcP/3sn3ceuOG7F5iQ/ZmQ+LLfvuwscG/dd3cMU4lw9//5WXffC9+I0wSuD7/yT+6eL2+4B19+K06/96svAVwi3M5rADB3E8ydBe4dn3kihui+tWfjCfTwqz+N0sf/4m6941M+/a4vfSUp+8QzcdmuipYIt5uTrat6Y9z16a2zwL3n2T+LIXrb/gc9RG+948447eB/fDMG630v/GWc/smDK3G6CCmGl9nTzG5vY/cG01cl5tW7vDJy8mJyKRe9FnFf0Ff0akdtf7Sy5q6tH3ZHRqPMceS1F4+ZPcpS9gUM9YEBWy7Glp0FbvzAbOvn7pZbb/UTTx6cyVKC/AlkVTTy0MynX3zX3XLbbXF6Ak6zp5m8YHy6/1cEtuRF3hF8o5eAa14MzOn7Z1Mw3czbKkfSD7rLJr9KewB3MZNB9cIR+y5KA50Frj4ws5HsXU8+FwN33+dPerAKjFe2fu7TZS03NGQWvE6fiCCbtd1NnFewp5j0kdWu9i2RrY2Ws8qH9e25/axtcgQSaKD9GugkcO0Ds/tOfyOGqHzWCPeTBw/59E8ceDBO2/9n347LqjhDeOkWN/J1HuC2X8DqR474qgsa6CRwP3U4eWB21xe/HEP04DfHEVzHv3C3/Ido6eDO1adj4N711PNxWXVOBNx1Fy8F+CUFszPvZrikYPOq7DFmlyLylhSqt6fXwRHgoIH2a6CTwJXf0saR7COPRRC95Ra38r3/5tMf/Pb3Y7De+8ebcdk7/uhInK7i1Aj38onkYZdEt3G+B3C0v9i16dqu5Gm9cyX2GNOyr9x1pzu3nsBdHrDFa8AVlii0Pe1bx8qx/RMOHw3bR50Ebp2iBV7DngB1aom20NI8DQDcILKcZzDymVRoAA3sVgMAF+DGyye7FRH1ABAaKKeBwQMXoZQTCnbCTmhg7xoAuLxXgAgXDaCBhjSQAu7T3/w3xx82QANoAA0sRgMAl5sMN1k0gAYa0oAF7v8HPJVQ8CTyRvQAAAAASUVORK5CYII=;" vertex="1" parent="1">
          <mxGeometry x="193" y="282" width="348" height="324" as="geometry" />
        </mxCell>
        <mxCell id="i2JR6kR3CyKO-apGiL5b-2" value="Assets" style="childLayout=tableLayout;recursiveResize=0;strokeColor=#98bf21;fillColor=#A7C942;shadow=1;" vertex="1" parent="1">
          <mxGeometry x="600" y="329" width="360" height="140" as="geometry" />
        </mxCell>
        <mxCell id="i2JR6kR3CyKO-apGiL5b-3" style="shape=tableRow;horizontal=0;startSize=0;swimlaneHead=0;swimlaneBody=0;top=0;left=0;bottom=0;right=0;dropTarget=0;collapsible=0;recursiveResize=0;expand=0;fontStyle=0;strokeColor=inherit;fillColor=#ffffff;" vertex="1" parent="i2JR6kR3CyKO-apGiL5b-2">
          <mxGeometry width="360" height="37" as="geometry" />
        </mxCell>
        <mxCell id="i2JR6kR3CyKO-apGiL5b-4" value="Directory" style="connectable=0;recursiveResize=0;strokeColor=inherit;fillColor=#A7C942;align=center;fontStyle=1;fontColor=#FFFFFF;html=1;" vertex="1" parent="i2JR6kR3CyKO-apGiL5b-3">
          <mxGeometry width="130" height="37" as="geometry">
            <mxRectangle width="130" height="37" as="alternateBounds" />
          </mxGeometry>
        </mxCell>
        <mxCell id="i2JR6kR3CyKO-apGiL5b-5" value="Description" style="connectable=0;recursiveResize=0;strokeColor=inherit;fillColor=#A7C942;align=center;fontStyle=1;fontColor=#FFFFFF;html=1;" vertex="1" parent="i2JR6kR3CyKO-apGiL5b-3">
          <mxGeometry x="130" width="230" height="37" as="geometry">
            <mxRectangle width="230" height="37" as="alternateBounds" />
          </mxGeometry>
        </mxCell>
        <mxCell id="i2JR6kR3CyKO-apGiL5b-6" value="" style="shape=tableRow;horizontal=0;startSize=0;swimlaneHead=0;swimlaneBody=0;top=0;left=0;bottom=0;right=0;dropTarget=0;collapsible=0;recursiveResize=0;expand=0;fontStyle=0;strokeColor=inherit;fillColor=#ffffff;" vertex="1" parent="i2JR6kR3CyKO-apGiL5b-2">
          <mxGeometry y="37" width="360" height="34" as="geometry" />
        </mxCell>
        <mxCell id="i2JR6kR3CyKO-apGiL5b-7" value="src/main/java" style="connectable=0;recursiveResize=0;strokeColor=inherit;fillColor=inherit;align=center;whiteSpace=wrap;html=1;" vertex="1" parent="i2JR6kR3CyKO-apGiL5b-6">
          <mxGeometry width="130" height="34" as="geometry">
            <mxRectangle width="130" height="34" as="alternateBounds" />
          </mxGeometry>
        </mxCell>
        <mxCell id="i2JR6kR3CyKO-apGiL5b-8" value="Your Java source code." style="connectable=0;recursiveResize=0;strokeColor=inherit;fillColor=inherit;align=center;whiteSpace=wrap;html=1;" vertex="1" parent="i2JR6kR3CyKO-apGiL5b-6">
          <mxGeometry x="130" width="230" height="34" as="geometry">
            <mxRectangle width="230" height="34" as="alternateBounds" />
          </mxGeometry>
        </mxCell>
        <mxCell id="i2JR6kR3CyKO-apGiL5b-9" value="" style="shape=tableRow;horizontal=0;startSize=0;swimlaneHead=0;swimlaneBody=0;top=0;left=0;bottom=0;right=0;dropTarget=0;collapsible=0;recursiveResize=0;expand=0;fontStyle=1;strokeColor=inherit;fillColor=#EAF2D3;" vertex="1" parent="i2JR6kR3CyKO-apGiL5b-2">
          <mxGeometry y="71" width="360" height="35" as="geometry" />
        </mxCell>
        <mxCell id="i2JR6kR3CyKO-apGiL5b-10" value="src/main/resources" style="connectable=0;recursiveResize=0;strokeColor=inherit;fillColor=inherit;whiteSpace=wrap;html=1;" vertex="1" parent="i2JR6kR3CyKO-apGiL5b-9">
          <mxGeometry width="130" height="35" as="geometry">
            <mxRectangle width="130" height="35" as="alternateBounds" />
          </mxGeometry>
        </mxCell>
        <mxCell id="i2JR6kR3CyKO-apGiL5b-11" value="Properties / config files used by your app." style="connectable=0;recursiveResize=0;strokeColor=inherit;fillColor=inherit;whiteSpace=wrap;html=1;" vertex="1" parent="i2JR6kR3CyKO-apGiL5b-9">
          <mxGeometry x="130" width="230" height="35" as="geometry">
            <mxRectangle width="230" height="35" as="alternateBounds" />
          </mxGeometry>
        </mxCell>
        <mxCell id="i2JR6kR3CyKO-apGiL5b-15" value="" style="shape=tableRow;horizontal=0;startSize=0;swimlaneHead=0;swimlaneBody=0;top=0;left=0;bottom=0;right=0;dropTarget=0;collapsible=0;recursiveResize=0;expand=0;fontStyle=1;strokeColor=inherit;fillColor=#EAF2D3;" vertex="1" parent="i2JR6kR3CyKO-apGiL5b-2">
          <mxGeometry y="106" width="360" height="34" as="geometry" />
        </mxCell>
        <mxCell id="i2JR6kR3CyKO-apGiL5b-16" value="src/test" style="connectable=0;recursiveResize=0;strokeColor=inherit;fillColor=inherit;whiteSpace=wrap;html=1;" vertex="1" parent="i2JR6kR3CyKO-apGiL5b-15">
          <mxGeometry width="130" height="34" as="geometry">
            <mxRectangle width="130" height="34" as="alternateBounds" />
          </mxGeometry>
        </mxCell>
        <mxCell id="i2JR6kR3CyKO-apGiL5b-17" value="Unit testing code and properties." style="connectable=0;recursiveResize=0;strokeColor=inherit;fillColor=inherit;whiteSpace=wrap;html=1;" vertex="1" parent="i2JR6kR3CyKO-apGiL5b-15">
          <mxGeometry x="130" width="230" height="34" as="geometry">
            <mxRectangle width="230" height="34" as="alternateBounds" />
          </mxGeometry>
        </mxCell>
        <mxCell id="i2JR6kR3CyKO-apGiL5b-29" style="edgeStyle=orthogonalEdgeStyle;rounded=0;orthogonalLoop=1;jettySize=auto;html=1;entryX=0;entryY=0.5;entryDx=0;entryDy=0;strokeWidth=2;strokeColor=#FF0000;" edge="1" parent="1" source="i2JR6kR3CyKO-apGiL5b-23" target="i2JR6kR3CyKO-apGiL5b-6">
          <mxGeometry relative="1" as="geometry">
            <Array as="points">
              <mxPoint x="490" y="434" />
              <mxPoint x="490" y="383" />
            </Array>
          </mxGeometry>
        </mxCell>
        <mxCell id="i2JR6kR3CyKO-apGiL5b-23" value="" style="rounded=0;whiteSpace=wrap;html=1;strokeColor=#FF0000;fillColor=none;strokeWidth=2;" vertex="1" parent="1">
          <mxGeometry x="250" y="424" width="100" height="20" as="geometry" />
        </mxCell>
        <mxCell id="i2JR6kR3CyKO-apGiL5b-30" style="edgeStyle=orthogonalEdgeStyle;rounded=0;orthogonalLoop=1;jettySize=auto;html=1;entryX=0;entryY=0.5;entryDx=0;entryDy=0;strokeWidth=2;strokeColor=#FF0000;" edge="1" parent="1" source="i2JR6kR3CyKO-apGiL5b-24" target="i2JR6kR3CyKO-apGiL5b-9">
          <mxGeometry relative="1" as="geometry">
            <Array as="points">
              <mxPoint x="510" y="454" />
              <mxPoint x="510" y="418" />
            </Array>
          </mxGeometry>
        </mxCell>
        <mxCell id="i2JR6kR3CyKO-apGiL5b-24" value="" style="rounded=0;whiteSpace=wrap;html=1;strokeColor=#FF0000;fillColor=none;strokeWidth=2;" vertex="1" parent="1">
          <mxGeometry x="250" y="444" width="100" height="20" as="geometry" />
        </mxCell>
        <mxCell id="i2JR6kR3CyKO-apGiL5b-31" style="edgeStyle=orthogonalEdgeStyle;rounded=0;orthogonalLoop=1;jettySize=auto;html=1;entryX=0;entryY=0.5;entryDx=0;entryDy=0;strokeWidth=2;strokeColor=#FF0000;" edge="1" parent="1" source="i2JR6kR3CyKO-apGiL5b-25" target="i2JR6kR3CyKO-apGiL5b-15">
          <mxGeometry relative="1" as="geometry">
            <Array as="points">
              <mxPoint x="530" y="493" />
              <mxPoint x="530" y="452" />
            </Array>
          </mxGeometry>
        </mxCell>
        <mxCell id="i2JR6kR3CyKO-apGiL5b-25" value="" style="rounded=0;whiteSpace=wrap;html=1;strokeColor=#FF0000;fillColor=none;strokeWidth=2;" vertex="1" parent="1">
          <mxGeometry x="251" y="483" width="90" height="20" as="geometry" />
        </mxCell>
      </root>
    </mxGraphModel>
  </diagram>
</mxfile>
